<?xml version="1.0" standalone="no"?>
<!DOCTYPE svg PUBLIC "-//W3C//DTD SVG 20010904//EN"
 "http://www.w3.org/TR/2001/REC-SVG-20010904/DTD/svg10.dtd">
<svg version="1.0" xmlns="http://www.w3.org/2000/svg"
 width="1200.000000pt" height="1200.000000pt" viewBox="0 0 1200.000000 1200.000000"
 preserveAspectRatio="xMidYMid meet">
<metadata>
Created by potrace 1.14, written by Peter Selinger 2001-2017
</metadata>
<g transform="translate(0.000000,1200.000000) scale(0.100000,-0.100000)"
fill="#000000" stroke="none">
<path d="M1760 8282 c-7 -3 -10 -774 -10 -2287 l0 -2283 4253 1 4252 2 0 2278
c0 1253 -2 2282 -5 2285 -5 7 -8470 10 -8490 4z m8366 -2277 c0 -1182 -1
-2154 -3 -2160 -2 -7 -1378 -9 -4106 -8 -2256 1 -4111 2 -4122 2 -20 1 -20 8
-20 2159 l0 2159 4125 -1 4125 -1 1 -2150z"/>
<path d="M2838 7319 c-5 -4 -10 -69 -11 -154 -2 -117 1 -149 12 -153 7 -3 124
-6 260 -6 182 -1 245 -4 244 -13 -1 -6 -42 -71 -91 -145 -49 -73 -178 -267
-286 -431 l-196 -297 0 -115 0 -115 530 0 531 0 -3 158 -3 157 -287 1 c-159 0
-290 3 -292 5 -3 3 38 70 91 149 53 80 112 170 132 200 20 30 38 57 41 60 8 7
122 185 138 216 7 13 17 24 23 24 5 0 9 4 9 10 0 5 32 58 72 116 l72 107 1
110 c1 85 -2 110 -12 114 -20 8 -963 9 -975 2z"/>
<path d="M4790 7315 c-4 -5 -13 -28 -19 -50 -7 -22 -15 -47 -18 -55 -3 -8 -7
-19 -8 -25 -2 -5 -11 -37 -21 -70 -10 -33 -19 -64 -20 -70 -3 -9 -27 -91 -125
-410 -42 -139 -102 -332 -139 -450 -17 -55 -33 -107 -35 -116 -2 -9 -13 -46
-24 -84 -12 -37 -21 -73 -21 -81 0 -11 34 -14 189 -14 l189 0 32 138 c40 173
35 162 62 163 110 4 372 -1 378 -8 6 -6 39 -142 66 -270 4 -23 5 -23 204 -23
110 0 200 3 200 6 0 4 -30 104 -66 223 -36 119 -70 232 -76 251 -6 19 -13 42
-16 50 -3 8 -6 20 -8 25 -1 6 -14 48 -29 95 -14 47 -39 128 -55 180 -30 100
-68 223 -93 303 -8 26 -14 47 -13 47 1 0 -16 57 -38 126 l-41 127 -224 1
c-138 1 -226 -3 -231 -9z m236 -320 c8 -41 14 -68 28 -126 8 -37 17 -78 20
-90 2 -13 18 -82 35 -153 17 -70 31 -130 31 -132 0 -2 -59 -4 -131 -4 -119 0
-130 1 -125 18 2 9 14 58 25 107 12 50 24 101 28 115 10 41 11 44 17 74 6 32
29 138 31 146 1 3 6 25 10 49 7 37 9 41 19 25 5 -11 11 -23 12 -29z"/>
<path d="M6315 7318 c-11 -7 -13 -137 -13 -718 l0 -710 180 0 180 0 -5 323
c-5 309 -7 343 -20 432 -4 22 -9 69 -13 105 -3 36 -8 68 -10 72 -2 4 0 9 4 12
5 3 24 -30 42 -72 76 -179 139 -313 273 -582 l142 -285 193 -3 192 -2 1 27 c4
159 1 1395 -4 1399 -8 8 -345 9 -353 1 -7 -7 -7 -345 0 -487 5 -101 11 -164
23 -260 3 -25 6 -58 8 -75 1 -16 6 -51 10 -77 4 -27 4 -48 0 -48 -3 0 -15 21
-26 48 -12 26 -27 61 -34 77 -7 17 -25 59 -40 95 -15 36 -101 215 -191 398
-118 237 -170 332 -182 333 -114 4 -346 2 -357 -3z"/>
<path d="M8102 7320 c-17 -4 -10 -24 67 -191 47 -102 99 -214 115 -250 17 -35
50 -107 74 -159 24 -52 53 -115 64 -140 11 -25 36 -77 54 -117 l34 -72 0 -251
0 -250 190 0 190 0 0 246 0 245 76 167 c41 92 93 203 114 247 21 44 48 103 60
130 25 56 65 142 111 243 62 133 69 152 56 153 -7 0 -95 1 -196 2 -155 2 -184
0 -188 -13 -3 -8 -16 -44 -30 -79 -14 -35 -26 -71 -28 -80 -2 -9 -11 -36 -20
-61 -9 -25 -41 -115 -71 -200 -30 -85 -57 -161 -60 -169 -7 -21 -28 12 -47 74
-8 28 -50 149 -92 270 -42 121 -79 228 -82 238 -3 9 -13 17 -22 18 -73 4 -354
3 -369 -1z"/>
<path d="M5060 5645 c-86 -24 -159 -65 -217 -123 -29 -29 -53 -57 -53 -62 0
-5 -6 -15 -13 -22 -16 -16 -53 -102 -61 -143 -14 -69 -16 -83 -16 -145 -1 -99
8 -155 35 -221 59 -146 167 -236 327 -274 81 -19 236 -13 303 11 58 20 146 72
159 92 6 11 10 263 7 445 l-1 27 -189 0 -188 0 -1 -105 0 -104 71 -3 72 -3 0
-65 c0 -36 -4 -68 -10 -72 -15 -11 -115 -9 -158 3 -50 14 -101 59 -129 117
-19 40 -23 62 -22 152 1 118 12 153 66 213 78 85 206 94 304 20 l31 -23 27 34
c14 19 32 40 39 48 7 7 26 30 42 52 l29 39 -33 28 c-18 15 -63 42 -98 59 -57
29 -77 33 -167 36 -70 3 -118 -1 -156 -11z"/>
<path d="M8809 5646 c-144 -39 -243 -154 -243 -281 0 -86 9 -121 40 -163 58
-77 84 -93 323 -195 61 -26 76 -37 82 -59 13 -49 -16 -72 -98 -76 -66 -4 -73
-2 -155 41 l-87 46 -38 -46 c-21 -26 -53 -62 -70 -82 -18 -20 -33 -40 -33 -44
0 -26 109 -91 210 -124 63 -20 223 -26 285 -9 156 41 255 152 260 291 3 95
-22 157 -89 219 -38 35 -70 51 -214 107 -119 46 -152 67 -152 99 0 24 37 60
64 61 66 4 108 -4 169 -33 l68 -33 17 22 c9 12 38 48 64 81 l47 59 -27 26
c-34 33 -120 76 -186 93 -63 17 -175 17 -237 0z"/>
<path d="M2806 5640 c-1 -3 -2 -223 -2 -490 l1 -485 314 -3 c193 -1 317 1 321
7 3 6 5 54 5 108 l-1 98 -186 3 -186 2 0 376 c0 207 -3 379 -7 382 -7 7 -256
9 -259 2z"/>
<path d="M3942 5635 c-4 -5 -7 -227 -7 -492 l-1 -483 132 0 132 0 1 490 c0
270 -3 490 -7 491 -43 7 -245 2 -250 -6z"/>
<path d="M6051 5635 c-4 -5 -7 -226 -7 -490 l1 -480 133 -3 132 -3 1 68 c0 37
0 125 0 196 l0 127 143 0 143 0 1 -167 c0 -93 1 -181 1 -196 l1 -28 133 3 132
3 1 480 c0 264 -3 485 -7 490 -6 9 -180 12 -254 6 -6 -1 -10 -68 -9 -181 l1
-180 -49 -1 c-26 0 -86 0 -133 0 -47 0 -89 0 -95 0 -5 1 -9 57 -9 139 0 75 0
157 0 182 l-1 45 -126 0 c-72 0 -129 -4 -133 -10z"/>
<path d="M7335 5640 c-2 -3 -2 -52 -2 -110 l2 -105 124 -2 c68 -1 126 -4 128
-7 3 -3 5 -174 5 -381 l-1 -376 132 3 132 3 0 378 0 377 45 1 c25 0 83 0 130
0 l85 0 0 112 0 111 -388 1 c-214 0 -390 -2 -392 -5z"/>
</g>
</svg>
